<svg id="averageBlock" viewBox="0 0 30 29" xmlns="http://www.w3.org/2000/svg">
    <path d="M15.9468 7.22977V14.9081L21.4252 18.1303L21.9582 17.2269L16.9981 14.2828V7.22977H15.9468Z"
    />
    <path d="M7.3692 19.7931H6.17176C8.0862 23.5274 11.9803 26.0833 16.4726 26.0833C22.8594 26.0833 28.0372 20.9158 28.0372 14.5417C28.0372 8.1675 22.8594 3 16.4726 3C10.8039 3 6.08765 7.07106 5.09838 12.4432H2.80542L5.43373 15.5909L8.06204 12.4432H6.16966C7.14421 7.65444 11.3863 4.04924 16.4726 4.04924C22.2791 4.04924 26.9859 8.74672 26.9859 14.5417C26.9859 20.3367 22.2791 25.0341 16.4726 25.0341C12.5838 25.0341 9.18696 22.9262 7.3692 19.7931Z"
    />
</svg>