<svg viewBox="0 0 21 21" fill="none" xmlns="http://www.w3.org/2000/svg">
<circle cx="10.5" cy="10.5" r="10.5" fill="#4C5157"/>
<path d="M8.44 10.304C8.44 10.6667 8.488 11.0347 8.584 11.408C8.68 11.7707 8.82933 12.1013 9.032 12.4C9.24533 12.688 9.52267 12.928 9.864 13.12C10.2053 13.3013 10.6213 13.392 11.112 13.392C11.7413 13.392 12.248 13.2533 12.632 12.976C13.016 12.6987 13.2667 12.304 13.384 11.792H16.184C16.1307 12.5067 15.9547 13.136 15.656 13.68C15.3573 14.224 14.9733 14.6773 14.504 15.04C14.0453 15.4027 13.5173 15.6747 12.92 15.856C12.3333 16.0373 11.72 16.128 11.08 16.128C10.2053 16.128 9.416 15.9947 8.712 15.728C8.01867 15.4613 7.42667 15.0773 6.936 14.576C6.456 14.0747 6.088 13.4667 5.832 12.752C5.576 12.0267 5.448 11.216 5.448 10.32C5.448 9.43467 5.58133 8.63467 5.848 7.92C6.11467 7.20533 6.49333 6.59733 6.984 6.096C7.47467 5.59467 8.06667 5.21067 8.76 4.944C9.45333 4.66667 10.2213 4.528 11.064 4.528C11.7147 4.528 12.328 4.61867 12.904 4.8C13.4907 4.98133 14.0027 5.25333 14.44 5.616C14.888 5.968 15.2507 6.416 15.528 6.96C15.816 7.504 15.992 8.144 16.056 8.88H13.32C13.192 8.368 12.9467 7.97333 12.584 7.696C12.232 7.408 11.736 7.264 11.096 7.264C10.6053 7.264 10.1893 7.35467 9.848 7.536C9.50667 7.70667 9.22933 7.936 9.016 8.224C8.81333 8.512 8.664 8.83733 8.568 9.2C8.48267 9.56267 8.44 9.93067 8.44 10.304Z" fill="#3CE2EC"/>
</svg>
