<svg id="gas" viewBox="0 0 30 29" xmlns="http://www.w3.org/2000/svg">
    <path d="M16.0026 5.58873H8.72914C8.60872 5.58873 8.49324 5.63647 8.40809 5.72145C8.32295 5.80643 8.27511 5.92168 8.27511 6.04186V10.875C8.27511 10.9952 8.32295 11.1104 8.40809 11.1954C8.49324 11.2804 8.60872 11.3281 8.72914 11.3281H16.0026C16.123 11.3281 16.2385 11.2804 16.3236 11.1954C16.4088 11.1104 16.4566 10.9952 16.4566 10.875V6.04186C16.4566 5.92168 16.4088 5.80643 16.3236 5.72145C16.2385 5.63647 16.123 5.58873 16.0026 5.58873ZM15.5486 10.4213H9.18316V6.49498H15.5486V10.4213ZM12.3659 13.6294C12.3062 13.6295 12.2471 13.6412 12.192 13.6641C12.1369 13.6869 12.0868 13.7204 12.0446 13.7625C11.8352 13.9721 10.0015 15.8526 10.0015 17.3309C10.0015 18.914 11.0634 20.2014 12.3687 20.2014C13.674 20.2014 14.7336 18.918 14.7336 17.332C14.7336 15.8526 12.8971 13.9721 12.6905 13.7637C12.648 13.7209 12.5975 13.687 12.5417 13.6639C12.486 13.6409 12.4262 13.6292 12.3659 13.6294ZM12.3659 19.2963C11.5617 19.2963 10.9067 18.415 10.9067 17.332C10.9067 16.5578 11.7813 15.4062 12.3653 14.7475C12.9396 15.3978 13.8256 16.564 13.8256 17.332C13.8256 18.415 13.1723 19.2963 12.3659 19.2963ZM25.15 12.7515L22.4418 8.22592C22.3801 8.12272 22.2798 8.04821 22.1631 8.01879C22.0463 7.98936 21.9226 8.00743 21.8192 8.06902C21.7158 8.13061 21.6412 8.23068 21.6117 8.3472C21.5822 8.46373 21.6003 8.58717 21.662 8.69037L23.3379 11.4913C22.9349 11.705 22.6151 12.0473 22.4297 12.4635C22.2443 12.8798 22.2039 13.346 22.3149 13.7879C22.426 14.2297 22.682 14.6217 23.0423 14.9014C23.4026 15.181 23.8463 15.3323 24.3027 15.3309H24.3101V18.4309C24.3021 18.8653 24.1235 19.2793 23.8128 19.5837C23.5021 19.8881 23.0841 20.0586 22.6487 20.0586C22.2133 20.0586 21.7953 19.8881 21.4846 19.5837C21.1738 19.2793 20.9953 18.8653 20.9872 18.4309V12.986C20.9856 12.3849 20.773 11.8033 20.3866 11.3423C20.0001 10.8812 19.464 10.5698 18.8715 10.4621V4.75781C18.8715 4.3372 18.704 3.93381 18.406 3.63639C18.108 3.33896 17.7038 3.17188 17.2824 3.17188H7.45276C7.03131 3.17188 6.62712 3.33896 6.32911 3.63639C6.0311 3.93381 5.86368 4.3372 5.86368 4.75781V22.5033H5.66901C5.39808 22.5033 5.13825 22.6107 4.94667 22.8019C4.75509 22.9931 4.64746 23.2525 4.64746 23.5229V24.8086C4.64746 25.079 4.75509 25.3383 4.94667 25.5295C5.13825 25.7207 5.39808 25.8281 5.66901 25.8281H19.0627C19.3337 25.8281 19.5935 25.7207 19.7851 25.5295C19.9766 25.3383 20.0843 25.079 20.0843 24.8086V23.524C20.0843 23.2536 19.9766 22.9943 19.7851 22.8031C19.5935 22.6119 19.3337 22.5045 19.0627 22.5045H18.8686V11.391C19.2155 11.4911 19.5206 11.7005 19.7383 11.988C19.956 12.2755 20.0746 12.6256 20.0763 12.986V18.4309C20.0864 19.1044 20.3615 19.7469 20.8423 20.2197C21.3231 20.6924 21.9709 20.9574 22.6458 20.9574C23.3208 20.9574 23.9686 20.6924 24.4494 20.2197C24.9302 19.7469 25.2053 19.1044 25.2153 18.4309V12.986C25.2154 12.9034 25.1928 12.8223 25.15 12.7515ZM19.1768 23.524V24.8086C19.1768 24.8386 19.1648 24.8675 19.1436 24.8887C19.1223 24.9099 19.0934 24.9219 19.0633 24.9219H5.66958C5.63948 24.9219 5.61061 24.9099 5.58932 24.8887C5.56804 24.8675 5.55608 24.8386 5.55608 24.8086V23.524C5.55608 23.4939 5.56804 23.4651 5.58932 23.4439C5.61061 23.4226 5.63948 23.4107 5.66958 23.4107H19.0633C19.0934 23.4107 19.1223 23.4226 19.1436 23.4439C19.1648 23.4651 19.1768 23.4939 19.1768 23.524ZM6.77173 22.5045V4.75781C6.77173 4.57755 6.84348 4.40467 6.9712 4.2772C7.09892 4.14973 7.27214 4.07812 7.45276 4.07812H17.2801C17.4607 4.07812 17.634 4.14973 17.7617 4.2772C17.8894 4.40467 17.9611 4.57755 17.9611 4.75781V22.5033L6.77173 22.5045ZM24.3084 14.4247C24.0507 14.4266 23.8001 14.3411 23.5976 14.182C23.3951 14.0229 23.2529 13.7998 23.1943 13.5494C23.1358 13.299 23.1643 13.0361 23.2753 12.804C23.3863 12.5719 23.5731 12.3844 23.805 12.2723L24.3084 13.1129V14.4247Z"
    />
</svg>