<svg  viewBox="0 0 14 14" xmlns="http://www.w3.org/2000/svg">
    <path d="M6.99301 3.8C7.15301 3.8 7.28967 3.85333 7.40301 3.96C7.51634 4.06 7.57301 4.19333 7.57301 4.36C7.57301 4.52667 7.51634 4.66333 7.40301 4.77C7.28967 4.87667 7.15301 4.93 6.99301 4.93C6.82634 4.93 6.68967 4.87667 6.58301 4.77C6.47634 4.66333 6.42301 4.52667 6.42301 4.36C6.42301 4.19333 6.47634 4.06 6.58301 3.96C6.68967 3.85333 6.82634 3.8 6.99301 3.8ZM6.57301 11V5.73H7.42301V11H6.57301Z"/>
    <rect x="0.4" y="0.4" width="13.2" height="13.2" rx="2.6" stroke="white" stroke-width="0.8"/>
</svg>