<svg id="twitter" viewBox="0 0 29 29" xmlns="http://www.w3.org/2000/svg">
    <g clip-path="url(#clip0_96_461)">
        <path d="M14.5 0C6.49153 0 0 6.49153 0 14.5C0 22.5085 6.49153 29 14.5 29C22.5085 29 29 22.5085 29 14.5C29 6.49153 22.5085 0 14.5 0ZM14.5 26.7344C7.74294 26.7344 2.26562 21.2571 2.26562 14.5C2.26562 7.74294 7.74294 2.26562 14.5 2.26562C21.2571 2.26562 26.7344 7.74294 26.7344 14.5C26.7344 21.2571 21.2571 26.7344 14.5 26.7344Z"
        />
        <path d="M21.7501 9.68113C21.5058 9.82624 20.7731 10.1156 20.0898 10.1882C20.5279 9.93386 21.1766 9.10056 21.3368 8.4386C20.9156 8.72798 19.9482 9.15012 19.4705 9.15012C19.4705 9.15012 19.4705 9.15143 19.4714 9.15233C18.926 8.53857 18.1595 8.15625 17.3081 8.15625C15.6568 8.15625 14.3169 9.59838 14.3169 11.3777C14.3169 11.6246 14.3442 11.8645 14.3938 12.0954H14.3928C12.152 12.0335 9.53245 10.8241 8.05622 8.75364C7.14997 10.4445 7.93411 12.3246 8.96332 13.0097C8.61198 13.0389 7.96243 12.9663 7.65713 12.6468C7.63589 13.7681 8.13767 15.255 9.96439 15.7938C9.61203 15.9983 8.99074 15.9399 8.7192 15.8947C8.81475 16.8434 10.0467 18.0823 11.3928 18.0823C10.913 18.679 9.27592 19.7649 7.25 19.4188C8.62631 20.3216 10.2308 20.8438 11.929 20.8438C16.7551 20.8438 20.5031 16.632 20.3013 11.4361C20.3013 11.4299 20.2995 11.4237 20.2995 11.4184C20.2995 11.4042 20.3013 11.3901 20.3013 11.3777C20.3013 11.3618 20.2995 11.3459 20.2995 11.329C20.7385 11.0069 21.3279 10.4351 21.7501 9.68113Z"
        />
    </g>
    <defs>
        <clipPath id="clip0_96_461">
            <rect width="29" height="29" fill="white"/>
        </clipPath>
    </defs>
</svg>