<svg id="wallet" viewBox="0 0 30 29" xmlns="http://www.w3.org/2000/svg">
    <path d="M25.7174 14.3168H24.7559V9.90269C24.7559 8.84445 23.8933 7.98354 22.8329 7.98354H21.5307L20.1981 5.59228C19.995 5.22683 19.6085 5 19.1893 5C18.9939 5 18.8001 5.05029 18.6289 5.14507L13.5146 7.98348H7.80186C6.74153 7.98348 5.87891 8.84439 5.87891 9.90263V23.0808C5.87891 24.139 6.74153 24.9999 7.80186 24.9999H22.8329C23.8933 24.9999 24.7559 24.139 24.7559 23.0808V19.2106H25.7174V14.3168ZM22.8329 8.75116C23.4252 8.75116 23.909 9.20022 23.974 9.77482H22.5287L21.9587 8.75116H22.8329ZM19.0031 5.816C19.1835 5.71507 19.4262 5.78566 19.5258 5.96495L21.6487 9.77446H11.8701L19.0031 5.816ZM23.9867 23.0808C23.9867 23.7156 23.469 24.2323 22.8329 24.2323H7.80186C7.16575 24.2323 6.64805 23.7156 6.64805 23.0808V9.90269C6.64805 9.26783 7.16575 8.75116 7.80186 8.75116H12.1316L10.2871 9.77488H8.04225C7.82957 9.77488 7.65764 9.94682 7.65764 10.1587C7.65764 10.3706 7.82957 10.5426 8.04225 10.5426H8.90373H22.9564H23.9867V14.3171H21.1742C19.8681 14.3171 18.8051 15.3781 18.8051 16.6815V16.8466C18.8051 18.1501 19.8681 19.211 21.1742 19.211H23.9867V23.0808ZM24.9482 18.4429H24.7559H21.1742C20.2919 18.4429 19.5742 17.7267 19.5742 16.8462V16.6811C19.5742 15.8006 20.2919 15.0843 21.1742 15.0843H24.7559H24.9482V18.4429ZM22.3522 16.7952C22.3522 17.2635 21.9722 17.6427 21.503 17.6427C21.0338 17.6427 20.6539 17.2634 20.6539 16.7952C20.6539 16.3269 21.0339 15.9477 21.503 15.9477C21.9722 15.9476 22.3522 16.3272 22.3522 16.7952Z"
    />
</svg>