<svg width="12" height="12" viewBox="0 0 12 12" fill="none" xmlns="http://www.w3.org/2000/svg">
<path d="M3.22238 0.119903L2.62126 0.721063C2.54099 0.801167 2.50098 0.893442 2.50098 0.997763C2.50098 1.10183 2.54099 1.19407 2.62126 1.27417L7.34677 5.99994L2.62139 10.7255C2.54111 10.8056 2.5011 10.8979 2.5011 11.0021C2.5011 11.1063 2.54111 11.1985 2.62139 11.2786L3.22255 11.8797C3.30265 11.96 3.39488 12 3.49912 12C3.60327 12 3.69551 11.9599 3.77561 11.8797L9.37894 6.27651C9.45909 6.19641 9.49914 6.10413 9.49914 5.99994C9.49914 5.89574 9.45909 5.80363 9.37894 5.72357L3.77561 0.119903C3.69546 0.0397978 3.60323 -9.53674e-07 3.49912 -9.53674e-07C3.39488 -9.53674e-07 3.30265 0.0397978 3.22238 0.119903Z" fill="white"/>
</svg>
