<svg width="12" height="12" viewBox="0 0 12 12" fill="none" xmlns="http://www.w3.org/2000/svg">
<path d="M8.77762 0.119902L9.37874 0.721062C9.45901 0.801166 9.49902 0.893442 9.49902 0.997763C9.49902 1.10183 9.45901 1.19406 9.37874 1.27417L4.65323 5.99994L9.37861 10.7255C9.45889 10.8056 9.4989 10.8979 9.4989 11.0021C9.4989 11.1063 9.45889 11.1985 9.37861 11.2786L8.77745 11.8797C8.69735 11.96 8.60512 12 8.50088 12C8.39673 12 8.30449 11.9599 8.22439 11.8797L2.62106 6.27651C2.54091 6.19641 2.50086 6.10413 2.50086 5.99994C2.50086 5.89574 2.54091 5.80363 2.62106 5.72357L8.22439 0.119902C8.30454 0.0397982 8.39677 -5.19235e-07 8.50088 -5.19235e-07C8.60512 -5.19235e-07 8.69735 0.0397982 8.77762 0.119902Z" fill="white"/>
</svg>
