<svg width="26" height="24" viewBox="0 0 26 24" fill="none" xmlns="http://www.w3.org/2000/svg">
    <path d="M13.1152 4.22977V11.9081L18.5829 15.1303L19.1148 14.2269L14.1645 11.2828V4.22977H13.1152Z" fill="white"/>
    <path d="M4.55474 16.7931H3.35967C5.27032 20.5274 9.15676 23.0833 13.6402 23.0833C20.0143 23.0833 25.1818 17.9158 25.1818 11.5417C25.1818 5.1675 20.0143 0 13.6402 0C7.98264 0 3.27573 4.07106 2.28842 9.44318H0L2.62311 12.5909L5.24621 9.44318H3.35758C4.3302 4.65444 8.56392 1.04924 13.6402 1.04924C19.4351 1.04924 24.1326 5.74672 24.1326 11.5417C24.1326 17.3367 19.4351 22.0341 13.6402 22.0341C9.75898 22.0341 6.3689 19.9262 4.55474 16.7931Z" fill="white"/>
</svg>
