<svg width="21" height="23" viewBox="0 0 21 23" fill="none" xmlns="http://www.w3.org/2000/svg">
    <path d="M11.569 2.58873H4.30992C4.18975 2.58873 4.07449 2.63647 3.98951 2.72145C3.90454 2.80643 3.8568 2.92168 3.8568 3.04186V7.875C3.8568 7.99518 3.90454 8.11043 3.98951 8.19541C4.07449 8.28039 4.18975 8.32812 4.30992 8.32812H11.569C11.6892 8.32812 11.8044 8.28039 11.8894 8.19541C11.9744 8.11043 12.0221 7.99518 12.0221 7.875V3.04186C12.0221 2.92168 11.9744 2.80643 11.8894 2.72145C11.8044 2.63647 11.6892 2.58873 11.569 2.58873ZM11.1159 7.42131H4.76305V3.49498H11.1159V7.42131ZM7.93945 10.6294C7.87989 10.6295 7.82092 10.6412 7.76591 10.6641C7.7109 10.6869 7.66093 10.7204 7.61887 10.7625C7.40986 10.9721 5.5798 12.8526 5.5798 14.3309C5.5798 15.914 6.63955 17.2014 7.94228 17.2014C9.24502 17.2014 10.3025 15.918 10.3025 14.332C10.3025 12.8526 8.46961 10.9721 8.26344 10.7637C8.22106 10.7209 8.17059 10.687 8.11496 10.6639C8.05933 10.6409 7.99967 10.6292 7.93945 10.6294ZM7.93945 16.2963C7.13686 16.2963 6.48322 15.415 6.48322 14.332C6.48322 13.5578 7.35605 12.4062 7.93889 11.7475C8.51209 12.3978 9.39625 13.564 9.39625 14.332C9.39625 15.415 8.74432 16.2963 7.93945 16.2963ZM20.6983 9.7515L17.9954 5.22592C17.9338 5.12272 17.8338 5.04821 17.7172 5.01879C17.6007 4.98936 17.4773 5.00743 17.3741 5.06902C17.2709 5.13061 17.1964 5.23068 17.1669 5.3472C17.1375 5.46373 17.1556 5.58717 17.2172 5.69037L18.8898 8.49125C18.4875 8.70501 18.1684 9.0473 17.9834 9.46355C17.7983 9.87979 17.758 10.346 17.8688 10.7879C17.9796 11.2297 18.2352 11.6217 18.5947 11.9014C18.9543 12.181 19.3972 12.3323 19.8527 12.3309H19.86V15.4309C19.852 15.8653 19.6738 16.2793 19.3637 16.5837C19.0536 16.8881 18.6364 17.0586 18.2019 17.0586C17.7673 17.0586 17.3502 16.8881 17.0401 16.5837C16.73 16.2793 16.5518 15.8653 16.5437 15.4309V9.986C16.5421 9.38488 16.33 8.80332 15.9443 8.34228C15.5585 7.88123 15.0236 7.56982 14.4322 7.46209V1.75781C14.4322 1.3372 14.2651 0.933806 13.9677 0.636385C13.6702 0.338964 13.2668 0.171875 12.8462 0.171875H3.03607C2.61546 0.171875 2.21207 0.338964 1.91465 0.636385C1.61723 0.933806 1.45014 1.3372 1.45014 1.75781V19.5033H1.25586C0.985463 19.5033 0.726141 19.6107 0.534942 19.8019C0.343743 19.9931 0.236328 20.2525 0.236328 20.5229V21.8086C0.236328 22.079 0.343743 22.3383 0.534942 22.5295C0.726141 22.7207 0.985463 22.8281 1.25586 22.8281H14.623C14.8934 22.8281 15.1528 22.7207 15.344 22.5295C15.5352 22.3383 15.6426 22.079 15.6426 21.8086V20.524C15.6426 20.2536 15.5352 19.9943 15.344 19.8031C15.1528 19.6119 14.8934 19.5045 14.623 19.5045H14.4293V8.391C14.7755 8.49105 15.08 8.7005 15.2973 8.98801C15.5146 9.27551 15.6329 9.62563 15.6346 9.986V15.4309C15.6447 16.1044 15.9192 16.7469 16.3991 17.2197C16.8789 17.6924 17.5255 17.9574 18.1991 17.9574C18.8726 17.9574 19.5192 17.6924 19.999 17.2197C20.4789 16.7469 20.7534 16.1044 20.7635 15.4309V9.986C20.7635 9.90335 20.741 9.82227 20.6983 9.7515ZM14.7369 20.524V21.8086C14.7369 21.8386 14.725 21.8675 14.7037 21.8887C14.6825 21.9099 14.6537 21.9219 14.6236 21.9219H1.25643C1.22638 21.9219 1.19757 21.9099 1.17632 21.8887C1.15508 21.8675 1.14314 21.8386 1.14314 21.8086V20.524C1.14314 20.4939 1.15508 20.4651 1.17632 20.4439C1.19757 20.4226 1.22638 20.4107 1.25643 20.4107H14.6236C14.6537 20.4107 14.6825 20.4226 14.7037 20.4439C14.725 20.4651 14.7369 20.4939 14.7369 20.524ZM2.35639 19.5045V1.75781C2.35639 1.57755 2.428 1.40467 2.55546 1.2772C2.68293 1.14973 2.85581 1.07812 3.03607 1.07812H12.844C13.0242 1.07812 13.1971 1.14973 13.3246 1.2772C13.452 1.40467 13.5237 1.57755 13.5237 1.75781V19.5033L2.35639 19.5045ZM19.8583 11.4247C19.6012 11.4266 19.351 11.3411 19.1489 11.182C18.9469 11.0229 18.8049 10.7998 18.7465 10.5494C18.688 10.299 18.7165 10.0361 18.8273 9.80399C18.938 9.5719 19.1245 9.3844 19.3559 9.27232L19.8583 10.1129V11.4247Z" fill="white"/>
</svg>
