<svg width="29" height="29" viewBox="0 0 29 29" fill="none" xmlns="http://www.w3.org/2000/svg">
    <path d="M6.55251 7.57217C6.55251 7.65862 6.56091 7.74257 6.57756 7.82438L3.34477 9.75603C3.12245 9.57105 2.83723 9.45957 2.52801 9.45957C1.82463 9.45957 1.24609 10.0373 1.24609 10.7406C1.24609 11.2938 1.60394 11.7694 2.09876 11.9474V20.2219C1.60389 20.4007 1.24609 20.8788 1.24609 21.432C1.24609 22.1354 1.82463 22.7131 2.52801 22.7131C3.08223 22.7131 3.55846 22.3542 3.73561 21.8579H12.0076C12.1855 22.3543 12.6642 22.7131 13.2185 22.7131C13.7728 22.7131 14.2498 22.3543 14.4269 21.8579H19.9555C20.1326 22.3543 20.6088 22.7131 21.1631 22.7131C21.8665 22.7131 22.4483 22.1354 22.4483 21.432C22.4483 21.3449 22.4384 21.2597 22.4216 21.1773L25.6552 19.2456C25.8777 19.4317 26.1624 19.5438 26.472 19.5438C27.1754 19.5438 27.7539 18.9627 27.7539 18.2593C27.7539 17.706 27.3962 17.2304 26.9012 17.0525V13.9108C27.3962 13.7321 27.7539 13.254 27.7539 12.7007C27.7539 11.9973 27.1754 11.4196 26.472 11.4196C25.9177 11.4196 25.4415 11.7784 25.2644 12.2748H19.735C19.6053 11.913 19.3161 11.6248 18.9542 11.4948V8.77811C19.4498 8.60015 19.8093 8.12534 19.8093 7.57217C19.8093 6.8688 19.2283 6.28694 18.5249 6.28694C17.9717 6.28694 17.496 6.64714 17.3181 7.14291H9.04369C8.86582 6.64709 8.3902 6.28694 7.83693 6.28694C7.13355 6.28694 6.5525 6.8688 6.55251 7.57217ZM9.04453 7.9981H16.9783L14.0353 9.75603C13.8129 9.57105 13.5277 9.45957 13.2185 9.45957C12.6655 9.45957 12.1882 9.81686 12.0092 10.3114H8.26285V8.77979C8.62584 8.65035 8.91499 8.361 9.04453 7.9981ZM7.02018 8.5568C7.13471 8.65172 7.26545 8.72704 7.40768 8.77811V10.3114H4.07886L7.02018 8.5568ZM17.7098 8.55766C17.8246 8.65284 17.9554 8.72884 18.0982 8.77979V11.4931C17.6018 11.6703 17.243 12.1465 17.243 12.7007C17.243 12.7877 17.252 12.873 17.2689 12.9554L14.0336 14.8854C13.9187 14.7897 13.7874 14.7136 13.6444 14.6624V11.9491C14.141 11.7721 14.5004 11.2951 14.5004 10.7407C14.5004 10.6539 14.4912 10.5697 14.4745 10.4876L17.7098 8.55766ZM3.73562 11.1674H7.40768V17.0525C6.91198 17.2305 6.5525 17.7061 6.55251 18.2593C6.55251 18.3465 6.56139 18.4322 6.57838 18.5149L3.34309 20.444C3.22835 20.3485 3.09667 20.2722 2.95392 20.221V11.9491C3.31661 11.8196 3.60607 11.5301 3.73562 11.1674ZM8.26285 11.1674H12.0084C12.1382 11.529 12.4274 11.8175 12.7892 11.9474V14.6641C12.2936 14.8429 11.9341 15.3202 11.9341 15.8734C11.9341 16.4266 12.2935 16.9022 12.7892 17.0801V17.8334H9.04453C8.915 17.4705 8.62577 17.1811 8.26285 17.0517V11.1674ZM19.7342 13.13H24.9212L21.9798 14.8846C21.7571 14.6998 21.4715 14.5889 21.1631 14.5889C20.6098 14.5889 20.135 14.9484 19.9572 15.4441H18.9542V13.9108C19.3154 13.7806 19.604 13.4912 19.7342 13.13ZM25.6552 13.687C25.7705 13.7835 25.9024 13.8602 26.0461 13.9117V17.0517C25.6833 17.1812 25.3939 17.4706 25.2644 17.8334H21.5923V17.0801C22.0882 16.9023 22.4483 16.4267 22.4483 15.8734C22.4483 15.7863 22.4385 15.7011 22.4216 15.6187L25.6552 13.687ZM17.7082 13.6878C17.8232 13.7841 17.9548 13.8603 18.0982 13.9117V15.4442H14.7693L17.7082 13.6878ZM14.4269 16.2993H18.0982V17.0518C17.7354 17.1812 17.4459 17.4707 17.3165 17.8335H13.6444V17.081C14.0074 16.9516 14.2974 16.6622 14.4269 16.2993ZM18.9542 16.2993H19.9555C20.0849 16.6621 20.3744 16.9515 20.7372 17.081V17.8335H19.735C19.6053 17.4717 19.3162 17.1825 18.9542 17.0526V16.2993ZM9.0437 18.6886H12.7892V20.2219C12.4281 20.3522 12.1394 20.6416 12.0092 21.0028H4.07802L7.01851 19.2457C7.24164 19.4317 7.52733 19.5438 7.83694 19.5438C8.39021 19.5438 8.86583 19.1845 9.0437 18.6886ZM13.6444 18.6886H16.9766L14.0336 20.4441C13.9187 20.3484 13.7873 20.2723 13.6444 20.2211V18.6886ZM19.7342 18.6886H20.7372V20.2211C20.3753 20.3509 20.0871 20.6406 19.9572 21.0028H14.7693L17.7082 19.2465C17.9305 19.4321 18.2157 19.5438 18.5249 19.5438C19.0782 19.5438 19.5555 19.1845 19.7342 18.6886ZM21.5923 18.6886H24.922L21.9815 20.4449C21.8668 20.3493 21.7349 20.2733 21.5923 20.2219V18.6886Z" fill="#3CE2EC"/>
</svg>
