<svg width="29" height="29" viewBox="0 0 29 29" fill="none" xmlns="http://www.w3.org/2000/svg">
    <g clip-path="url(#clip0_96_133)">
        <path d="M11.1514 22.3027C8.94583 22.3027 6.78983 21.6487 4.956 20.4234C3.12217 19.198 1.69287 17.4564 0.848851 15.4188C0.0048317 13.3812 -0.216002 11.139 0.214275 8.97584C0.644553 6.81269 1.70662 4.8257 3.26616 3.26616C4.82571 1.70661 6.81269 0.644549 8.97584 0.214271C11.139 -0.216006 13.3812 0.00482789 15.4188 0.848848C17.4564 1.69287 19.198 3.12217 20.4234 4.956C21.6487 6.78983 22.3027 8.94583 22.3027 11.1514C22.3027 12.6158 22.0143 14.0659 21.4539 15.4188C20.8935 16.7717 20.0721 18.0011 19.0366 19.0366C18.0011 20.0721 16.7717 20.8935 15.4188 21.4539C14.0659 22.0143 12.6158 22.3027 11.1514 22.3027ZM11.1514 2.23027C9.38694 2.23027 7.66214 2.75349 6.19507 3.73375C4.72801 4.71401 3.58457 6.10729 2.90935 7.73741C2.23414 9.36752 2.05747 11.1613 2.40169 12.8918C2.74591 14.6223 3.59557 16.2119 4.8432 17.4595C6.09084 18.7072 7.68042 19.5568 9.41094 19.901C11.1415 20.2453 12.9352 20.0686 14.5653 19.3934C16.1954 18.7182 17.5887 17.5747 18.569 16.1076C19.5492 14.6406 20.0724 12.9158 20.0724 11.1514C20.0724 8.78534 19.1325 6.51623 17.4595 4.8432C15.7865 3.17017 13.5174 2.23027 11.1514 2.23027Z" fill="white"/>
        <path d="M27.8782 28.9933C27.7314 28.9941 27.5859 28.966 27.4501 28.9105C27.3142 28.855 27.1906 28.7732 27.0864 28.6699L18.1654 19.7488C18.0614 19.6448 17.9789 19.5214 17.9226 19.3855C17.8664 19.2497 17.8374 19.1041 17.8374 18.9571C17.8374 18.81 17.8664 18.6644 17.9226 18.5286C17.9789 18.3927 18.0614 18.2693 18.1654 18.1653C18.2693 18.0613 18.3928 17.9789 18.5286 17.9226C18.6645 17.8663 18.8101 17.8374 18.9571 17.8374C19.1041 17.8374 19.2497 17.8663 19.3856 17.9226C19.5214 17.9789 19.6449 18.0613 19.7488 18.1653L28.6699 27.0864C28.7745 27.1901 28.8574 27.3134 28.914 27.4493C28.9706 27.5852 28.9998 27.7309 28.9998 27.8781C28.9998 28.0254 28.9706 28.1711 28.914 28.307C28.8574 28.4429 28.7745 28.5662 28.6699 28.6699C28.5657 28.7732 28.4422 28.855 28.3063 28.9105C28.1704 28.966 28.0249 28.9941 27.8782 28.9933Z" fill="white"/>
    </g>
    <defs>
        <clipPath id="clip0_96_133">
            <rect width="29" height="29" fill="white"/>
        </clipPath>
    </defs>
</svg>
