<svg width="20" height="16" viewBox="0 0 20 16" fill="none" xmlns="http://www.w3.org/2000/svg">
    <path d="M18.4639 5.27899H0.879232C0.646045 5.27899 0.422409 5.18636 0.257521 5.02147C0.0926331 4.85658 0 4.63294 0 4.39976C0 4.16657 0.0926331 3.94293 0.257521 3.77805C0.422409 3.61316 0.646045 3.52053 0.879232 3.52053H16.3449L14.3227 1.50708C14.1571 1.34152 14.0641 1.11697 14.0641 0.88283C14.0641 0.648689 14.1571 0.424138 14.3227 0.258575C14.4883 0.0930122 14.7128 0 14.9469 0C15.1811 0 15.4056 0.0930122 15.5712 0.258575L19.0881 3.7755C19.2101 3.89914 19.2928 4.05615 19.3256 4.22671C19.3585 4.39727 19.3401 4.57375 19.2728 4.73387C19.2068 4.89443 19.0948 5.03188 18.9508 5.12889C18.8069 5.22589 18.6375 5.27812 18.4639 5.27899Z" fill="white"/>
    <path d="M4.39603 15.1615C4.28032 15.1622 4.16561 15.14 4.05849 15.0963C3.95136 15.0525 3.85393 14.988 3.77178 14.9066L0.254847 11.3896C0.132847 11.266 0.0502029 11.109 0.0173423 10.9384C-0.0155182 10.7679 0.00287768 10.5914 0.0702088 10.4313C0.136169 10.2707 0.248181 10.1333 0.392129 10.0362C0.536077 9.93923 0.705519 9.88701 0.879102 9.88614H18.4637C18.6969 9.88614 18.9206 9.97877 19.0855 10.1437C19.2503 10.3085 19.343 10.5322 19.343 10.7654C19.343 10.9986 19.2503 11.2222 19.0855 11.3871C18.9206 11.552 18.6969 11.6446 18.4637 11.6446H2.99805L5.02028 13.658C5.10269 13.7398 5.1681 13.837 5.21274 13.9442C5.25738 14.0513 5.28036 14.1662 5.28036 14.2823C5.28036 14.3984 5.25738 14.5133 5.21274 14.6204C5.1681 14.7276 5.10269 14.8248 5.02028 14.9066C4.93813 14.988 4.8407 15.0525 4.73357 15.0963C4.62645 15.14 4.51174 15.1622 4.39603 15.1615Z" fill="white"/>
</svg>
