<svg width="27" height="17" viewBox="0 0 27 17" fill="none" xmlns="http://www.w3.org/2000/svg">
    <path d="M5.55251 1.57219C5.55251 1.65863 5.56091 1.74258 5.57755 1.82439L2.34477 3.75604C2.12245 3.57107 1.83723 3.45959 1.52801 3.45959C0.82463 3.45959 0.246089 4.03727 0.246094 4.74066C0.246089 5.29382 0.603936 5.76946 1.09876 5.94742V14.2219C0.603892 14.4007 0.246089 14.8788 0.246094 15.432C0.246089 16.1354 0.824625 16.7131 1.52801 16.7131C2.08223 16.7131 2.55846 16.3542 2.73561 15.8579H11.0076C11.1855 16.3543 11.6642 16.7131 12.2185 16.7131C12.7728 16.7131 13.2498 16.3543 13.4269 15.8579H18.9555C19.1326 16.3543 19.6088 16.7131 20.1631 16.7131C20.8665 16.7131 21.4483 16.1354 21.4483 15.432C21.4483 15.3449 21.4384 15.2597 21.4216 15.1773L24.6552 13.2456C24.8777 13.4317 25.1624 13.5438 25.472 13.5438C26.1754 13.5438 26.7539 12.9627 26.7539 12.2593C26.7539 11.7061 26.3962 11.2304 25.9012 11.0526V7.91082C26.3962 7.73212 26.7539 7.25402 26.7539 6.70073C26.7539 5.99736 26.1754 5.41962 25.472 5.41962C24.9177 5.41962 24.4415 5.77843 24.2644 6.27481H18.735C18.6053 5.91303 18.3161 5.62479 17.9542 5.4948V2.77812C18.4498 2.60016 18.8093 2.12535 18.8093 1.57219C18.8093 0.868813 18.2283 0.286957 17.5249 0.286957C16.9717 0.286957 16.496 0.647158 16.3181 1.14293H8.04369C7.86582 0.647106 7.3902 0.286957 6.83693 0.286957C6.13355 0.286957 5.5525 0.868813 5.55251 1.57219ZM8.04453 1.99812H15.9783L13.0353 3.75604C12.8129 3.57107 12.5277 3.45959 12.2185 3.45959C11.6655 3.45959 11.1882 3.81688 11.0092 4.31144H7.26285V2.77981C7.62583 2.65036 7.91499 2.36101 8.04453 1.99812ZM6.02018 2.55681C6.13471 2.65173 6.26545 2.72705 6.40768 2.77812V4.31144H3.07886L6.02018 2.55681ZM16.7098 2.55767C16.8246 2.65285 16.9554 2.72886 17.0982 2.77981V5.49315C16.6018 5.67028 16.243 6.14647 16.243 6.70073C16.243 6.78769 16.252 6.87305 16.2689 6.95544L13.0336 8.88545C12.9187 8.78976 12.7874 8.71365 12.6444 8.66245V5.94911C13.141 5.77211 13.5004 5.29511 13.5004 4.7407C13.5004 4.65387 13.4912 4.56972 13.4745 4.48764L16.7098 2.55767ZM2.73562 5.16745H6.40768V11.0526C5.91198 11.2305 5.5525 11.7061 5.55251 12.2593C5.55251 12.3465 5.56139 12.4322 5.57838 12.5149L2.34309 14.444C2.22835 14.3485 2.09667 14.2722 1.95392 14.221V5.94911C2.31661 5.81965 2.60607 5.53009 2.73562 5.16745ZM7.26285 5.16745H11.0084C11.1382 5.52903 11.4274 5.81755 11.7892 5.94746V8.66414C11.2936 8.84293 10.9341 9.32025 10.9341 9.8734C10.9341 10.4266 11.2935 10.9022 11.7892 11.0802V11.8334H8.04453C7.915 11.4706 7.62577 11.1812 7.26285 11.0517V5.16745ZM18.7342 7.12999H23.9212L20.9798 8.88459C20.7571 8.69982 20.4715 8.58895 20.1631 8.58895C19.6098 8.58895 19.135 8.94837 18.9572 9.44414H17.9542V7.91082C18.3154 7.78057 18.604 7.49121 18.7342 7.12999ZM24.6552 7.68704C24.7705 7.7835 24.9024 7.86017 25.0461 7.91169V11.0517C24.6833 11.1812 24.3938 11.4706 24.2644 11.8334H20.5923V11.0802C21.0882 10.9023 21.4483 10.4267 21.4483 9.8734C21.4483 9.78632 21.4385 9.70114 21.4216 9.61869L24.6552 7.68704ZM16.7082 7.68786C16.8232 7.78407 16.9548 7.8603 17.0982 7.91169V9.44418H13.7693L16.7082 7.68786ZM13.4269 10.2993H17.0982V11.0518C16.7354 11.1812 16.4459 11.4707 16.3165 11.8335H12.6444V11.081C13.0074 10.9516 13.2974 10.6623 13.4269 10.2993ZM17.9542 10.2993H18.9555C19.0849 10.6621 19.3744 10.9515 19.7372 11.081V11.8335H18.735C18.6053 11.4717 18.3162 11.1826 17.9542 11.0526V10.2993ZM8.0437 12.6886H11.7892V14.2219C11.4281 14.3522 11.1394 14.6416 11.0092 15.0028H3.07802L6.01851 13.2457C6.24164 13.4317 6.52733 13.5438 6.83693 13.5438C7.39021 13.5438 7.86583 13.1845 8.0437 12.6886ZM12.6444 12.6886H15.9766L13.0336 14.4441C12.9187 14.3484 12.7873 14.2723 12.6444 14.2211V12.6886ZM18.7342 12.6886H19.7372V14.2211C19.3753 14.3509 19.0871 14.6407 18.9572 15.0028H13.7693L16.7082 13.2465C16.9305 13.4322 17.2157 13.5438 17.5249 13.5438C18.0782 13.5438 18.5555 13.1845 18.7342 12.6886ZM20.5923 12.6886H23.922L20.9815 14.4449C20.8668 14.3493 20.7349 14.2733 20.5923 14.2219V12.6886Z" fill="white"/>
</svg>
