<svg width="30" height="29" viewBox="0 0 30 29" fill="none" xmlns="http://www.w3.org/2000/svg">
    <path d="M23.7903 12.279H6.17077C5.93712 12.279 5.71304 12.1864 5.54783 12.0215C5.38261 11.8566 5.28979 11.6329 5.28979 11.3998C5.28979 11.1666 5.38261 10.9429 5.54783 10.778C5.71304 10.6132 5.93712 10.5205 6.17077 10.5205H21.6671L19.6409 8.50708C19.475 8.34152 19.3818 8.11697 19.3818 7.88283C19.3818 7.64869 19.475 7.42414 19.6409 7.25857C19.8068 7.09301 20.0318 7 20.2664 7C20.501 7 20.726 7.09301 20.8919 7.25857L24.4158 10.7755C24.538 10.8991 24.6208 11.0562 24.6538 11.2267C24.6867 11.3973 24.6683 11.5737 24.6008 11.7339C24.5347 11.8944 24.4225 12.0319 24.2782 12.1289C24.134 12.2259 23.9642 12.2781 23.7903 12.279Z" fill="#3CE2EC"/>
    <path d="M9.69479 22.1615C9.57885 22.1622 9.46391 22.14 9.35658 22.0962C9.24924 22.0525 9.15161 21.988 9.0693 21.9065L5.54539 18.3896C5.42315 18.266 5.34034 18.1089 5.30741 17.9384C5.27449 17.7678 5.29292 17.5913 5.36038 17.4312C5.42648 17.2707 5.53871 17.1332 5.68294 17.0362C5.82718 16.9392 5.99696 16.887 6.17088 16.8861H23.7904C24.0241 16.8861 24.2481 16.9787 24.4134 17.1436C24.5786 17.3085 24.6714 17.5322 24.6714 17.7653C24.6714 17.9985 24.5786 18.2222 24.4134 18.3871C24.2481 18.5519 24.0241 18.6446 23.7904 18.6446H8.29404L10.3203 20.658C10.4029 20.7398 10.4684 20.837 10.5131 20.9441C10.5578 21.0513 10.5809 21.1662 10.5809 21.2823C10.5809 21.3983 10.5578 21.5133 10.5131 21.6204C10.4684 21.7275 10.4029 21.8248 10.3203 21.9065C10.238 21.988 10.1403 22.0525 10.033 22.0962C9.92566 22.14 9.81073 22.1622 9.69479 22.1615Z" fill="#3CE2EC"/>
</svg>
