<svg width="20" height="20" viewBox="0 0 20 20" fill="none" xmlns="http://www.w3.org/2000/svg">
    <path d="M19.7992 9.31678H18.8396V4.90269C18.8396 3.84445 17.9787 2.98354 16.9205 2.98354H15.6208L14.2908 0.592276C14.0881 0.226829 13.7024 0 13.284 0C13.089 0 12.8956 0.050287 12.7248 0.145068L7.62058 2.98348H1.91915C0.860912 2.98348 0 3.84439 0 4.90263V18.0808C0 19.139 0.860912 19.9999 1.91915 19.9999H16.9205C17.9787 19.9999 18.8396 19.139 18.8396 18.0808V14.2106H19.7992V9.31678ZM16.9205 3.75116C17.5115 3.75116 17.9944 4.20022 18.0593 4.77482H16.6168L16.048 3.75116H16.9205ZM13.0982 0.816C13.2782 0.715068 13.5205 0.785661 13.6198 0.96495L15.7386 4.77446H5.97932L13.0982 0.816ZM18.0719 18.0808C18.0719 18.7156 17.5553 19.2323 16.9204 19.2323H1.91915C1.28429 19.2323 0.767624 18.7156 0.767624 18.0808V4.90269C0.767624 4.26783 1.28429 3.75116 1.91915 3.75116H6.24031L4.39946 4.77488H2.15906C1.9468 4.77488 1.77522 4.94682 1.77522 5.15872C1.77522 5.37062 1.9468 5.54256 2.15906 5.54256H3.01884H17.0437H18.0719V9.31714H15.265C13.9615 9.31714 12.9006 10.3781 12.9006 11.6815V11.8466C12.9006 13.1501 13.9615 14.211 15.265 14.211H18.0719V18.0808ZM19.0315 13.4429H18.8396H15.265C14.3845 13.4429 13.6682 12.7267 13.6682 11.8462V11.6811C13.6682 10.8006 14.3844 10.0843 15.265 10.0843H18.8396H19.0315V13.4429ZM16.4406 11.7952C16.4406 12.2635 16.0614 12.6427 15.5932 12.6427C15.1249 12.6427 14.7457 12.2634 14.7457 11.7952C14.7457 11.3269 15.1249 10.9477 15.5932 10.9477C16.0615 10.9476 16.4406 11.3272 16.4406 11.7952Z" fill="white"/>
</svg>
